<svg width="31" height="31" viewBox="0 0 31 31" fill="none" xmlns="http://www.w3.org/2000/svg">
<g clip-path="url(#clip0_4083_564)">
<path d="M24.5417 5.16667H23.8855L21.0645 1.50867C20.7009 1.04083 20.2357 0.661871 19.7039 0.400486C19.1722 0.139101 18.588 0.0021481 17.9955 0L13.0045 0C12.412 0.0021481 11.8278 0.139101 11.2961 0.400486C10.7643 0.661871 10.2991 1.04083 9.9355 1.50867L7.1145 5.16667H6.45833C4.74611 5.16872 3.1046 5.84981 1.89387 7.06053C0.683139 8.27126 0.00205098 9.91277 0 11.625L0 24.5417C0.00205098 26.2539 0.683139 27.8954 1.89387 29.1061C3.1046 30.3169 4.74611 30.9979 6.45833 31H24.5417C26.2539 30.9979 27.8954 30.3169 29.1061 29.1061C30.3169 27.8954 30.9979 26.2539 31 24.5417V11.625C30.9979 9.91277 30.3169 8.27126 29.1061 7.06053C27.8954 5.84981 26.2539 5.16872 24.5417 5.16667ZM11.9815 3.08708C12.1025 2.93086 12.2575 2.80429 12.4348 2.717C12.6121 2.62971 12.8069 2.58399 13.0045 2.58333H17.9955C18.1931 2.58418 18.3878 2.62998 18.5651 2.71726C18.7423 2.80454 18.8974 2.931 19.0185 3.08708L20.6227 5.16667H10.3773L11.9815 3.08708ZM28.4167 24.5417C28.4167 25.5694 28.0084 26.555 27.2817 27.2817C26.555 28.0084 25.5694 28.4167 24.5417 28.4167H6.45833C5.43062 28.4167 4.445 28.0084 3.71829 27.2817C2.99159 26.555 2.58333 25.5694 2.58333 24.5417V11.625C2.58333 10.5973 2.99159 9.61166 3.71829 8.88496C4.445 8.15826 5.43062 7.75 6.45833 7.75H24.5417C25.5694 7.75 26.555 8.15826 27.2817 8.88496C28.0084 9.61166 28.4167 10.5973 28.4167 11.625V24.5417Z" fill="white"/>
<path d="M15.5 10.3334C13.9672 10.3334 12.4688 10.7879 11.1943 11.6395C9.91985 12.4911 8.92652 13.7014 8.33994 15.1176C7.75336 16.5337 7.59988 18.092 7.89892 19.5953C8.19795 21.0987 8.93607 22.4796 10.0199 23.5635C11.1038 24.6473 12.4847 25.3854 13.9881 25.6845C15.4914 25.9835 17.0497 25.83 18.4658 25.2434C19.8819 24.6569 21.0923 23.6635 21.9439 22.389C22.7955 21.1146 23.25 19.6162 23.25 18.0834C23.248 16.0286 22.4308 14.0585 20.9778 12.6056C19.5249 11.1526 17.5548 10.3354 15.5 10.3334ZM15.5 23.25C14.4781 23.25 13.4792 22.947 12.6296 22.3793C11.7799 21.8116 11.1177 21.0047 10.7266 20.0606C10.3356 19.1165 10.2333 18.0776 10.4326 17.0754C10.632 16.0732 11.124 15.1526 11.8466 14.43C12.5692 13.7074 13.4898 13.2153 14.492 13.016C15.4943 12.8166 16.5331 12.9189 17.4772 13.31C18.4213 13.701 19.2282 14.3633 19.7959 15.2129C20.3636 16.0626 20.6667 17.0615 20.6667 18.0834C20.6667 19.4537 20.1223 20.7678 19.1534 21.7368C18.1845 22.7057 16.8703 23.25 15.5 23.25Z" fill="white"/>
</g>
<defs>
<clipPath id="clip0_4083_564">
<rect width="31" height="31" fill="white"/>
</clipPath>
</defs>
</svg>
