<svg width="25" height="21" viewBox="0 0 25 21" fill="none" xmlns="http://www.w3.org/2000/svg">
<path fill-rule="evenodd" clip-rule="evenodd" d="M9.49511 0.349762C5.48975 1.8291 3.08052 5.1884 3.08052 9.29406C3.08052 10.5815 3.078 10.5873 2.32019 11.0889C-0.428364 12.9077 -0.802224 16.8541 1.55986 19.1141C2.4787 19.9934 3.76189 20.5225 4.98707 20.5275C5.8737 20.5312 6.10108 20.4513 6.58766 19.9647L7.15476 19.3976V15.4337C7.15476 11.5118 7.14971 11.4645 6.68622 10.9643C6.42857 10.6863 5.98138 10.3995 5.69249 10.327C5.17177 10.1964 5.16789 10.183 5.25577 8.81466C5.38188 6.84914 6.123 5.28948 7.56528 3.9541C9.01959 2.60766 10.3973 2.07006 12.3931 2.07006C14.3889 2.07006 15.7665 2.60766 17.2208 3.9541C18.6631 5.28948 19.4042 6.84914 19.5303 8.81466C19.6182 10.183 19.6143 10.1964 19.0936 10.327C18.8047 10.3995 18.3575 10.6863 18.0999 10.9643C17.6364 11.4645 17.6314 11.5118 17.6314 15.4337V19.3976L18.1985 19.9647C18.6841 20.4503 18.9142 20.5316 19.799 20.5298C21.6955 20.5263 23.7565 19.1345 24.395 17.4262C24.5341 17.0535 24.7281 16.597 24.8259 16.4118C25.0583 15.9715 25.0579 14.0729 24.8255 14.2167C24.7275 14.2772 24.5907 14.0693 24.5217 13.7544C24.3426 12.9393 23.3919 11.7015 22.4832 11.1001L21.7056 10.5856V9.29406C21.7056 5.61716 19.73 2.47438 16.3808 0.823731C14.904 0.0959956 14.7485 0.0618497 12.6946 0.0119888C10.937 -0.0304997 10.3596 0.0304199 9.49511 0.349762ZM0.0364864 15.3905C0.0374564 16.0307 0.0737365 16.2692 0.117001 15.9205C0.160072 15.5719 0.159295 15.048 0.115061 14.7564C0.0706323 14.4649 0.0353223 14.7502 0.0364864 15.3905Z" fill="#9F7159" fill-opacity="0.6"/>
</svg>
