<svg width="23" height="23" viewBox="0 0 23 23" fill="none" xmlns="http://www.w3.org/2000/svg">
<mask id="mask0_4621_884" style="mask-type:luminance" maskUnits="userSpaceOnUse" x="0" y="0" width="23" height="23">
<path d="M23 0H0V23H23V0Z" fill="white"/>
</mask>
<g mask="url(#mask0_4621_884)">
<path d="M22.54 11.7615C22.54 10.946 22.4669 10.162 22.3309 9.40918H11.5V13.8576H17.6891C17.4225 15.2951 16.6123 16.5131 15.3944 17.3285V20.214H19.1109C21.2855 18.212 22.54 15.2637 22.54 11.7615Z" fill="#4285F4"/>
<path d="M11.4998 22.9999C14.6048 22.9999 17.2079 21.9701 19.1106 20.2138L15.394 17.3284C14.3643 18.0184 13.047 18.426 11.4998 18.426C8.50447 18.426 5.96929 16.4031 5.06493 13.6849H1.2229V16.6645C3.11523 20.4229 7.0043 22.9999 11.4998 22.9999Z" fill="#34A853"/>
<path d="M5.06517 13.685C4.83517 12.995 4.70454 12.2579 4.70454 11.5C4.70454 10.742 4.83517 10.005 5.06517 9.31498V6.33545H1.22314C0.44436 7.88795 0 9.64434 0 11.5C0 13.3556 0.44436 15.112 1.22314 16.6645L5.06517 13.685Z" fill="#FBBC04"/>
<path d="M11.4998 4.57389C13.1881 4.57389 14.704 5.15407 15.8959 6.29361L19.1943 2.99517C17.2027 1.13953 14.5995 0 11.4998 0C7.0043 0 3.11523 2.57703 1.2229 6.33546L5.06493 9.315C5.96929 6.59686 8.50447 4.57389 11.4998 4.57389Z" fill="#E94235"/>
</g>
</svg>
