<svg width="24" height="24" viewBox="0 0 24 24" fill="none" xmlns="http://www.w3.org/2000/svg">
<path fill-rule="evenodd" clip-rule="evenodd" d="M10.3264 0.206372C9.42529 0.527885 2.22343 5.39394 1.37294 6.25596C0.0753547 7.57122 0 8.00809 0 14.2115C0 20.5132 0.0718196 20.9062 1.47956 22.3141C2.59425 23.4286 3.65759 23.7937 5.7904 23.7937C8.11393 23.7937 8.00062 24.0808 8.00062 18.1933C8.00062 13.9801 8.03671 13.3899 8.30836 13.1644C8.54354 12.9692 9.39124 12.9091 11.9079 12.9091C14.4246 12.9091 15.2723 12.9692 15.5074 13.1644C15.7791 13.3899 15.8152 13.9801 15.8152 18.1933C15.8152 24.0808 15.7019 23.7937 18.0254 23.7937C19.0595 23.7937 19.9893 23.6802 20.5666 23.4835C21.6954 23.0989 23.1143 21.7305 23.4403 20.712C23.5693 20.3091 23.7483 19.8998 23.8383 19.8027C24.0556 19.5679 24.053 8.29704 23.8357 8.43138C23.7442 8.48794 23.6137 8.31249 23.5458 8.04177C23.4102 7.50163 22.5301 6.14581 22.0638 5.7588C21.8285 5.56344 21.7691 5.1128 21.7691 3.51919C21.7691 1.82268 21.7181 1.47791 21.4288 1.21612C20.5573 0.427412 19.9461 1.095 19.8709 2.91728L19.8155 4.26548L16.9315 2.3364C15.3454 1.27529 13.7629 0.310566 13.4152 0.192603C12.6417 -0.0699288 11.0812 -0.0628586 10.3264 0.206372ZM0.0827971 14.2115C0.082611 17.3839 0.108101 18.7079 0.139174 17.1535C0.170246 15.5994 0.170246 13.0038 0.139174 11.3857C0.108287 9.76767 0.0827971 11.0392 0.0827971 14.2115Z" fill="white"/>
</svg>
