<svg width="25" height="25" viewBox="0 0 25 25" fill="none" xmlns="http://www.w3.org/2000/svg">
<rect x="0.48" y="0.48" width="24.04" height="24.04" rx="12.02" fill="#9A9A9A" stroke="#9A9A9A" stroke-width="0.96"/>
<path d="M9.26024 18C10.5109 18 11.5205 16.9904 11.5205 15.7398V9.26024C11.5205 8.00955 10.5109 7 9.26024 7C8.00955 7 7 8.00955 7 9.26024V15.7398C7 16.9753 8.00955 18 9.26024 18ZM7.45202 9.26024C7.45202 8.26576 8.26576 7.45202 9.26024 7.45202C10.2547 7.45202 11.0685 8.26576 11.0685 9.26024V15.7398C11.0685 16.7342 10.2547 17.548 9.26024 17.548C8.26576 17.548 7.45202 16.7342 7.45202 15.7398V9.26024Z" fill="#F9F7F7"/>
<path d="M7.45202 9.26024C7.45202 8.26576 8.26576 7.45202 9.26024 7.45202C10.2547 7.45202 11.0685 8.26576 11.0685 9.26024V15.7398C11.0685 16.7342 10.2547 17.548 9.26024 17.548C8.26576 17.548 7.45202 16.7342 7.45202 15.7398V9.26024Z" fill="#F9F7F7"/>
<path d="M15.2879 18C16.5386 18 17.5481 16.9904 17.5481 15.7398V9.26024C17.5481 8.00955 16.5386 7 15.2879 7C14.0372 7 13.0276 8.00955 13.0276 9.26024V15.7398C13.0275 16.9753 14.0372 18 15.2879 18ZM13.4795 9.26024C13.4795 8.26576 14.2933 7.45202 15.2878 7.45202C16.2822 7.45202 17.096 8.26576 17.096 9.26024V15.7398C17.096 16.7342 16.2822 17.548 15.2878 17.548C14.2933 17.548 13.4795 16.7342 13.4795 15.7398V9.26024Z" fill="#F9F7F7"/>
<path d="M13.4795 9.26024C13.4795 8.26576 14.2933 7.45202 15.2878 7.45202C16.2822 7.45202 17.096 8.26576 17.096 9.26024V15.7398C17.096 16.7342 16.2822 17.548 15.2878 17.548C14.2933 17.548 13.4795 16.7342 13.4795 15.7398V9.26024Z" fill="#F9F7F7"/>
</svg>
