<svg width="24" height="25" viewBox="0 0 24 25" fill="none" xmlns="http://www.w3.org/2000/svg">
<path d="M5.1369 25C7.97936 25 10.2738 22.7056 10.2738 19.8631V5.1369C10.2738 2.29444 7.97936 0 5.1369 0C2.29444 0 0 2.29444 0 5.1369V19.8631C0 22.6711 2.29444 25 5.1369 25ZM1.02731 5.1369C1.02731 2.87672 2.87672 1.02731 5.1369 1.02731C7.39709 1.02731 9.24649 2.87672 9.24649 5.1369V19.8631C9.24649 22.1233 7.39709 23.9727 5.1369 23.9727C2.87672 23.9727 1.02731 22.1233 1.02731 19.8631V5.1369Z" fill="#F9F7F7"/>
<path d="M1.02731 5.1369C1.02731 2.87672 2.87672 1.02731 5.1369 1.02731C7.39709 1.02731 9.24649 2.87672 9.24649 5.1369V19.8631C9.24649 22.1233 7.39709 23.9727 5.1369 23.9727C2.87672 23.9727 1.02731 22.1233 1.02731 19.8631V5.1369Z" fill="#F9F7F7"/>
<path d="M18.836 25C21.6785 25 23.9729 22.7056 23.9729 19.8631V5.1369C23.9729 2.29444 21.6785 0 18.836 0C15.9935 0 13.6991 2.29444 13.6991 5.1369V19.8631C13.6988 22.6711 15.9935 25 18.836 25ZM14.7261 5.1369C14.7261 2.87672 16.5755 1.02731 18.8357 1.02731C21.0959 1.02731 22.9453 2.87672 22.9453 5.1369V19.8631C22.9453 22.1233 21.0959 23.9727 18.8357 23.9727C16.5755 23.9727 14.7261 22.1233 14.7261 19.8631V5.1369Z" fill="#F9F7F7"/>
<path d="M14.7261 5.1369C14.7261 2.87672 16.5755 1.02731 18.8357 1.02731C21.0959 1.02731 22.9453 2.87672 22.9453 5.1369V19.8631C22.9453 22.1233 21.0959 23.9727 18.8357 23.9727C16.5755 23.9727 14.7261 22.1233 14.7261 19.8631V5.1369Z" fill="#F9F7F7"/>
</svg>
