<svg width="230" height="55" viewBox="0 0 230 55" fill="none" xmlns="http://www.w3.org/2000/svg">
<g clip-path="url(#clip0_4008_434)">
<path d="M225.027 0.625H4.97293C2.56975 0.625 0.621582 2.58375 0.621582 5V50C0.621582 52.4162 2.56975 54.375 4.97293 54.375H225.027C227.43 54.375 229.378 52.4162 229.378 50V5C229.378 2.58375 227.43 0.625 225.027 0.625Z" fill="#131314"/>
<mask id="mask0_4008_434" style="mask-type:luminance" maskUnits="userSpaceOnUse" x="19" y="15" width="26" height="25">
<path d="M44.7567 15H19.8918V40H44.7567V15Z" fill="white"/>
</mask>
<g mask="url(#mask0_4008_434)">
<path d="M44.2594 27.7842C44.2594 26.8978 44.1803 26.0455 44.0333 25.2273H32.3242V30.0625H39.0151C38.7269 31.625 37.8511 32.9489 36.5343 33.8353V36.9717H40.5522C42.9031 34.7955 44.2594 31.5909 44.2594 27.7842Z" fill="#4285F4"/>
<path d="M32.3245 40C35.6812 40 38.4954 38.8806 40.5525 36.9716L36.5345 33.8352C35.4213 34.5852 33.9971 35.0284 32.3245 35.0284C29.0863 35.0284 26.3456 32.8295 25.3679 29.875H21.2144V33.1136C23.2601 37.1989 27.4645 40 32.3245 40Z" fill="#34A853"/>
<path d="M25.3677 29.875C25.1191 29.125 24.9778 28.3239 24.9778 27.5C24.9778 26.6761 25.1191 25.875 25.3677 25.125V21.8864H21.2142C20.3722 23.5739 19.8918 25.483 19.8918 27.5C19.8918 29.517 20.3722 31.4261 21.2142 33.1136L25.3677 29.875Z" fill="#FBBC04"/>
<path d="M32.3245 19.9716C34.1498 19.9716 35.7885 20.6023 37.077 21.8409L40.6429 18.2556C38.4898 16.2386 35.6755 15 32.3245 15C27.4645 15 23.2601 17.8011 21.2144 21.8864L25.3679 25.125C26.3456 22.1705 29.0863 19.9716 32.3245 19.9716Z" fill="#E94235"/>
</g>
<path d="M67.4434 30.5456C67.4434 30.2893 67.4037 30.0615 67.3244 29.862C67.2508 29.6626 67.1176 29.4804 66.9251 29.3151C66.7324 29.15 66.4605 28.9905 66.1091 28.8366C65.7635 28.6771 65.3215 28.5148 64.7833 28.3496C64.194 28.1674 63.6501 27.9651 63.1516 27.7429C62.6586 27.515 62.2281 27.253 61.8597 26.9567C61.4915 26.6549 61.2054 26.3103 61.0014 25.9229C60.7974 25.5298 60.6954 25.0769 60.6954 24.5642C60.6954 24.0572 60.8002 23.5957 61.0098 23.1799C61.2252 22.7641 61.5283 22.4053 61.9193 22.1033C62.3159 21.7956 62.7833 21.5593 63.3215 21.394C63.8598 21.2231 64.4547 21.1378 65.1063 21.1378C66.0241 21.1378 66.8145 21.3086 67.4774 21.6504C68.146 21.9922 68.6588 22.4508 69.0157 23.0261C69.3783 23.6015 69.5596 24.2366 69.5596 24.9316H67.4434C67.4434 24.5215 67.3556 24.1598 67.1799 23.8464C67.01 23.5274 66.7494 23.2767 66.398 23.0945C66.0524 22.9122 65.6133 22.821 65.0808 22.821C64.5766 22.821 64.1572 22.898 63.8229 23.0518C63.4887 23.2056 63.2393 23.4135 63.0751 23.6755C62.9107 23.9376 62.8286 24.2337 62.8286 24.5642C62.8286 24.7977 62.8824 25.0114 62.9901 25.2051C63.0977 25.3931 63.2621 25.5696 63.483 25.7349C63.7039 25.8944 63.9816 26.0454 64.3159 26.1877C64.6502 26.3301 65.0439 26.4669 65.4972 26.5979C66.1827 26.803 66.7805 27.0309 67.2904 27.2815C67.8004 27.5265 68.2254 27.8056 68.5653 28.1189C68.9052 28.4323 69.1602 28.7882 69.3301 29.187C69.5001 29.5801 69.5851 30.0272 69.5851 30.5286C69.5851 31.0526 69.4803 31.5255 69.2707 31.947C69.0611 32.3629 68.7607 32.7189 68.3698 33.0151C67.9845 33.3056 67.5199 33.5306 66.976 33.6901C66.4377 33.844 65.8372 33.9209 65.1743 33.9209C64.5793 33.9209 63.993 33.8411 63.415 33.6816C62.8427 33.5221 62.3216 33.28 61.8513 32.9554C61.3809 32.6249 61.0071 32.2147 60.7295 31.7249C60.4517 31.2292 60.313 30.651 60.313 29.9903H62.4461C62.4461 30.3948 62.5142 30.7394 62.6502 31.0241C62.7918 31.309 62.9872 31.5425 63.2366 31.7249C63.4859 31.9015 63.7748 32.0325 64.1034 32.1179C64.4377 32.2034 64.7946 32.2461 65.1743 32.2461C65.6729 32.2461 66.0893 32.1749 66.4235 32.0325C66.7636 31.89 67.0184 31.6906 67.1885 31.4344C67.3584 31.178 67.4434 30.8818 67.4434 30.5456ZM73.4605 24.5044V33.75H71.4038V24.5044H73.4605ZM71.2678 22.0776C71.2678 21.7644 71.3698 21.5051 71.5738 21.3C71.7834 21.0893 72.0725 20.9839 72.4407 20.9839C72.8032 20.9839 73.0894 21.0893 73.299 21.3C73.5086 21.5051 73.6135 21.7644 73.6135 22.0776C73.6135 22.3852 73.5086 22.6416 73.299 22.8466C73.0894 23.0517 72.8032 23.1542 72.4407 23.1542C72.0725 23.1542 71.7834 23.0517 71.5738 22.8466C71.3698 22.6416 71.2678 22.3852 71.2678 22.0776ZM81.5938 24.5044H83.4551V33.4936C83.4551 34.3254 83.2794 35.0318 82.9281 35.6128C82.5769 36.1939 82.0868 36.6354 81.4578 36.9373C80.8289 37.2449 80.1008 37.3986 79.2737 37.3986C78.9223 37.3986 78.5315 37.3474 78.1008 37.2449C77.6759 37.1424 77.2622 36.9771 76.8601 36.7493C76.4635 36.5271 76.132 36.2337 75.8657 35.8691L76.826 34.6557C77.1546 35.0489 77.5172 35.3365 77.9138 35.5188C78.3104 35.7011 78.7269 35.7923 79.1632 35.7923C79.6335 35.7923 80.0328 35.704 80.3615 35.5274C80.6958 35.3565 80.9536 35.103 81.1348 34.7669C81.3162 34.4307 81.4068 34.0206 81.4068 33.5364V26.5979L81.5938 24.5044ZM75.3473 29.2298V29.0503C75.3473 28.3496 75.4322 27.7116 75.6021 27.1362C75.7722 26.5551 76.0158 26.0567 76.333 25.6409C76.6503 25.2194 77.0356 24.8975 77.4889 24.6753C77.9422 24.4474 78.4549 24.3335 79.0272 24.3335C79.622 24.3335 80.1292 24.4418 80.5485 24.6583C80.9735 24.8746 81.3275 25.1851 81.6109 25.5896C81.8941 25.9884 82.1151 26.4669 82.2738 27.0251C82.438 27.5778 82.5598 28.193 82.6392 28.8709V29.4434C82.5656 30.1041 82.4409 30.708 82.2652 31.2549C82.0895 31.8018 81.8573 32.2746 81.5683 32.6734C81.2794 33.0721 80.9224 33.3798 80.4974 33.5963C80.0782 33.8126 79.5824 33.9209 79.0102 33.9209C78.4493 33.9209 77.9422 33.8041 77.4889 33.5705C77.0413 33.337 76.656 33.0095 76.333 32.5879C76.0158 32.1664 75.7722 31.6707 75.6021 31.1011C75.4322 30.5257 75.3473 29.9019 75.3473 29.2298ZM77.3954 29.0503V29.2298C77.3954 29.6513 77.4351 30.0444 77.5144 30.4089C77.5994 30.7735 77.7268 31.0954 77.8968 31.3745C78.0725 31.648 78.2935 31.8644 78.5598 32.0239C78.8317 32.1778 79.1519 32.2546 79.5201 32.2546C80.0017 32.2546 80.3955 32.1521 80.7014 31.947C81.0131 31.742 81.2511 31.4656 81.4153 31.1181C81.5853 30.765 81.7044 30.3719 81.7722 29.939V28.3924C81.7383 28.0562 81.6674 27.7429 81.5598 27.4524C81.4578 27.1619 81.3191 26.9084 81.1434 26.6919C80.9677 26.4698 80.7468 26.2989 80.4805 26.1792C80.2142 26.0539 79.8998 25.9912 79.5371 25.9912C79.1689 25.9912 78.8487 26.071 78.5767 26.2305C78.3048 26.39 78.081 26.6093 77.9054 26.8884C77.7354 27.1675 77.6079 27.4923 77.523 27.8625C77.4379 28.2329 77.3954 28.6288 77.3954 29.0503ZM87.6109 26.4783V33.75H85.5628V24.5044H87.4919L87.6109 26.4783ZM87.2455 28.7854L86.5826 28.7769C86.5882 28.1217 86.6789 27.5207 86.8545 26.9739C87.0359 26.427 87.2851 25.957 87.6024 25.564C87.9254 25.1709 88.3107 24.869 88.7583 24.6583C89.2058 24.4418 89.7044 24.3335 90.254 24.3335C90.696 24.3335 91.0954 24.3961 91.4524 24.5215C91.8149 24.6411 92.1237 24.8376 92.3787 25.1111C92.6393 25.3845 92.8376 25.7405 92.9736 26.1792C93.1096 26.6121 93.1776 27.1448 93.1776 27.7771V33.75H91.1209V27.7685C91.1209 27.3242 91.0558 26.9739 90.9254 26.7175C90.8008 26.4555 90.6167 26.2704 90.373 26.1621C90.135 26.0481 89.8375 25.9912 89.4806 25.9912C89.1294 25.9912 88.815 26.0652 88.5372 26.2134C88.2596 26.3615 88.0245 26.5638 87.8319 26.8201C87.6449 27.0764 87.5005 27.3726 87.3984 27.7087C87.2965 28.0449 87.2455 28.4037 87.2455 28.7854ZM101.795 24.5044V33.75H99.7386V24.5044H101.795ZM99.6026 22.0776C99.6026 21.7644 99.7047 21.5051 99.9085 21.3C100.118 21.0893 100.407 20.9839 100.775 20.9839C101.138 20.9839 101.424 21.0893 101.634 21.3C101.843 21.5051 101.948 21.7644 101.948 22.0776C101.948 22.3852 101.843 22.6416 101.634 22.8466C101.424 23.0517 101.138 23.1542 100.775 23.1542C100.407 23.1542 100.118 23.0517 99.9085 22.8466C99.7047 22.6416 99.6026 22.3852 99.6026 22.0776ZM106.07 26.4783V33.75H104.022V24.5044H105.951L106.07 26.4783ZM105.705 28.7854L105.042 28.7769C105.047 28.1217 105.138 27.5207 105.314 26.9739C105.495 26.427 105.744 25.957 106.062 25.564C106.385 25.1709 106.77 24.869 107.217 24.6583C107.665 24.4418 108.164 24.3335 108.713 24.3335C109.155 24.3335 109.555 24.3961 109.912 24.5215C110.274 24.6411 110.583 24.8376 110.838 25.1111C111.099 25.3845 111.297 25.7405 111.433 26.1792C111.569 26.6121 111.637 27.1448 111.637 27.7771V33.75H109.58V27.7685C109.58 27.3242 109.515 26.9739 109.385 26.7175C109.26 26.4555 109.076 26.2704 108.832 26.1621C108.594 26.0481 108.297 25.9912 107.94 25.9912C107.589 25.9912 107.274 26.0652 106.997 26.2134C106.719 26.3615 106.484 26.5638 106.291 26.8201C106.104 27.0764 105.96 27.3726 105.858 27.7087C105.756 28.0449 105.705 28.4037 105.705 28.7854ZM120.561 31.6992L122.685 24.5044H123.994L123.637 26.6578L121.495 33.75H120.322L120.561 31.6992ZM119.311 24.5044L120.968 31.7334L121.104 33.75H119.796L117.305 24.5044H119.311ZM125.983 31.648L127.589 24.5044H129.586L127.104 33.75H125.796L125.983 31.648ZM124.215 24.5044L126.315 31.6138L126.577 33.75H125.405L123.238 26.6491L122.881 24.5044H124.215ZM133.172 24.5044V33.75H131.116V24.5044H133.172ZM130.981 22.0776C130.981 21.7644 131.082 21.5051 131.286 21.3C131.495 21.0893 131.785 20.9839 132.153 20.9839C132.516 20.9839 132.802 21.0893 133.011 21.3C133.221 21.5051 133.325 21.7644 133.325 22.0776C133.325 22.3852 133.221 22.6416 133.011 22.8466C132.802 23.0517 132.516 23.1542 132.153 23.1542C131.785 23.1542 131.495 23.0517 131.286 22.8466C131.082 22.6416 130.981 22.3852 130.981 22.0776ZM139.631 24.5044V26.0083H134.448V24.5044H139.631ZM135.944 22.24H137.991V31.1951C137.991 31.4799 138.031 31.6993 138.111 31.853C138.195 32.0011 138.312 32.1009 138.459 32.1521C138.607 32.2034 138.779 32.229 138.977 32.229C139.119 32.229 139.254 32.2205 139.385 32.2034C139.515 32.1862 139.62 32.1693 139.699 32.1521L139.708 33.7244C139.538 33.7756 139.34 33.8212 139.114 33.8611C138.893 33.901 138.638 33.9209 138.348 33.9209C137.878 33.9209 137.462 33.8382 137.099 33.6731C136.737 33.5022 136.453 33.2259 136.249 32.8443C136.046 32.4626 135.944 31.9556 135.944 31.3232V22.24ZM143.235 20.625V33.75H141.195V20.625H143.235ZM142.878 28.7854L142.216 28.7769C142.221 28.1389 142.309 27.5492 142.479 27.008C142.655 26.4669 142.898 25.9969 143.209 25.5981C143.527 25.1936 143.907 24.8833 144.348 24.6668C144.791 24.4446 145.28 24.3335 145.819 24.3335C146.272 24.3335 146.68 24.3961 147.042 24.5215C147.411 24.6468 147.728 24.849 147.994 25.1281C148.26 25.4016 148.462 25.7605 148.597 26.2049C148.739 26.6435 148.81 27.179 148.81 27.8113V33.75H146.754V27.7942C146.754 27.3499 146.689 26.9966 146.558 26.7346C146.434 26.4726 146.249 26.2846 146.005 26.1706C145.761 26.051 145.464 25.9912 145.114 25.9912C144.745 25.9912 144.419 26.0652 144.137 26.2134C143.858 26.3615 143.626 26.5638 143.439 26.8201C143.253 27.0764 143.111 27.3726 143.014 27.7087C142.923 28.0449 142.878 28.4037 142.878 28.7854ZM164.924 27.3926V32.1435C164.748 32.3771 164.474 32.6335 164.099 32.9126C163.731 33.186 163.241 33.4225 162.63 33.6219C162.017 33.8212 161.255 33.9209 160.343 33.9209C159.566 33.9209 158.855 33.7899 158.21 33.5279C157.564 33.2601 157.005 32.8699 156.535 32.3571C156.07 31.8445 155.711 31.2208 155.456 30.4859C155.201 29.7453 155.073 28.9021 155.073 27.9565V27.0935C155.073 26.1536 155.19 25.3161 155.423 24.5813C155.66 23.8408 156.001 23.2141 156.442 22.7014C156.884 22.1888 157.417 21.8014 158.04 21.5392C158.669 21.2716 159.38 21.1378 160.173 21.1378C161.188 21.1378 162.026 21.3086 162.688 21.6504C163.357 21.9865 163.873 22.4536 164.236 23.0518C164.598 23.6499 164.828 24.3335 164.924 25.1025H162.834C162.765 24.6696 162.632 24.2822 162.433 23.9404C162.241 23.5986 161.963 23.3309 161.6 23.1372C161.244 22.9379 160.78 22.8381 160.207 22.8381C159.714 22.8381 159.28 22.9321 158.906 23.1201C158.533 23.3081 158.221 23.5844 157.971 23.949C157.728 24.3135 157.544 24.7579 157.419 25.282C157.295 25.8061 157.233 26.4043 157.233 27.0764V27.9565C157.233 28.6401 157.304 29.2469 157.445 29.7766C157.592 30.3064 157.802 30.7536 158.073 31.1181C158.352 31.4828 158.689 31.759 159.085 31.947C159.482 32.1294 159.929 32.2205 160.428 32.2205C160.915 32.2205 161.314 32.1806 161.626 32.1009C161.939 32.0154 162.185 31.9158 162.366 31.8018C162.553 31.6821 162.697 31.5682 162.799 31.46V28.9905H160.224V27.3926H164.924ZM166.691 29.2298V29.0333C166.691 28.3668 166.788 27.7486 166.981 27.179C167.173 26.6036 167.451 26.1051 167.813 25.6836C168.182 25.2564 168.63 24.926 169.157 24.6924C169.689 24.4531 170.289 24.3335 170.958 24.3335C171.632 24.3335 172.233 24.4531 172.76 24.6924C173.292 24.926 173.743 25.2564 174.111 25.6836C174.479 26.1051 174.76 26.6036 174.953 27.179C175.146 27.7486 175.241 28.3668 175.241 29.0333V29.2298C175.241 29.8963 175.146 30.5144 174.953 31.084C174.76 31.6536 174.479 32.1521 174.111 32.5794C173.743 33.0009 173.296 33.3312 172.768 33.5705C172.241 33.8041 171.643 33.9209 170.974 33.9209C170.301 33.9209 169.698 33.8041 169.164 33.5705C168.638 33.3312 168.191 33.0009 167.822 32.5794C167.454 32.1521 167.173 31.6536 166.981 31.084C166.788 30.5144 166.691 29.8963 166.691 29.2298ZM168.74 29.0333V29.2298C168.74 29.6456 168.783 30.0386 168.867 30.4089C168.952 30.7793 169.086 31.1039 169.266 31.383C169.448 31.6622 169.68 31.8815 169.964 32.041C170.247 32.2005 170.584 32.2802 170.974 32.2802C171.355 32.2802 171.683 32.2005 171.96 32.041C172.244 31.8815 172.476 31.6622 172.658 31.383C172.839 31.1039 172.972 30.7793 173.057 30.4089C173.148 30.0386 173.194 29.6456 173.194 29.2298V29.0333C173.194 28.623 173.148 28.2356 173.057 27.8711C172.972 27.5009 172.837 27.1733 172.649 26.8884C172.468 26.6036 172.235 26.3814 171.953 26.2219C171.674 26.0568 171.344 25.9741 170.958 25.9741C170.573 25.9741 170.238 26.0568 169.955 26.2219C169.678 26.3814 169.448 26.6036 169.266 26.8884C169.086 27.1733 168.952 27.5009 168.867 27.8711C168.783 28.2356 168.74 28.623 168.74 29.0333ZM176.567 29.2298V29.0333C176.567 28.3668 176.664 27.7486 176.856 27.179C177.049 26.6036 177.326 26.1051 177.689 25.6836C178.057 25.2564 178.505 24.926 179.032 24.6924C179.564 24.4531 180.165 24.3335 180.833 24.3335C181.507 24.3335 182.109 24.4531 182.635 24.6924C183.168 24.926 183.618 25.2564 183.986 25.6836C184.354 26.1051 184.635 26.6036 184.828 27.179C185.021 27.7486 185.116 28.3668 185.116 29.0333V29.2298C185.116 29.8963 185.021 30.5144 184.828 31.084C184.635 31.6536 184.354 32.1521 183.986 32.5794C183.618 33.0009 183.171 33.3312 182.644 33.5705C182.116 33.8041 181.52 33.9209 180.851 33.9209C180.176 33.9209 179.573 33.8041 179.041 33.5705C178.513 33.3312 178.066 33.0009 177.698 32.5794C177.329 32.1521 177.049 31.6536 176.856 31.084C176.664 30.5144 176.567 29.8963 176.567 29.2298ZM178.615 29.0333V29.2298C178.615 29.6456 178.658 30.0386 178.742 30.4089C178.828 30.7793 178.961 31.1039 179.143 31.383C179.324 31.6622 179.555 31.8815 179.839 32.041C180.122 32.2005 180.459 32.2802 180.851 32.2802C181.23 32.2802 181.558 32.2005 181.837 32.041C182.12 31.8815 182.351 31.6622 182.533 31.383C182.714 31.1039 182.847 30.7793 182.933 30.4089C183.024 30.0386 183.069 29.6456 183.069 29.2298V29.0333C183.069 28.623 183.024 28.2356 182.933 27.8711C182.847 27.5009 182.712 27.1733 182.524 26.8884C182.344 26.6036 182.111 26.3814 181.828 26.2219C181.551 26.0568 181.219 25.9741 180.833 25.9741C180.448 25.9741 180.114 26.0568 179.83 26.2219C179.553 26.3814 179.324 26.6036 179.143 26.8884C178.961 27.1733 178.828 27.5009 178.742 27.8711C178.658 28.2356 178.615 28.623 178.615 29.0333ZM192.724 24.5044H194.585V33.4936C194.585 34.3254 194.408 35.0318 194.058 35.6128C193.706 36.1939 193.216 36.6354 192.587 36.9373C191.958 37.2449 191.231 37.3986 190.403 37.3986C190.052 37.3986 189.66 37.3474 189.23 37.2449C188.805 37.1424 188.392 36.9771 187.989 36.7493C187.593 36.5271 187.261 36.2337 186.995 35.8691L187.956 34.6557C188.284 35.0489 188.647 35.3365 189.044 35.5188C189.44 35.7011 189.857 35.7923 190.293 35.7923C190.763 35.7923 191.162 35.704 191.49 35.5274C191.825 35.3565 192.083 35.103 192.264 34.7669C192.445 34.4307 192.536 34.0206 192.536 33.5364V26.5979L192.724 24.5044ZM186.476 29.2298V29.0503C186.476 28.3496 186.562 27.7116 186.731 27.1362C186.902 26.5551 187.145 26.0567 187.462 25.6409C187.779 25.2194 188.165 24.8975 188.619 24.6753C189.071 24.4474 189.585 24.3335 190.156 24.3335C190.752 24.3335 191.259 24.4418 191.678 24.6583C192.103 24.8746 192.456 25.1851 192.74 25.5896C193.023 25.9884 193.245 26.4669 193.403 27.0251C193.568 27.5778 193.69 28.193 193.768 28.8709V29.4434C193.695 30.1041 193.57 30.708 193.395 31.2549C193.219 31.8018 192.987 32.2746 192.698 32.6734C192.409 33.0721 192.052 33.3798 191.627 33.5963C191.208 33.8126 190.712 33.9209 190.139 33.9209C189.578 33.9209 189.071 33.8041 188.619 33.5705C188.171 33.337 187.786 33.0095 187.462 32.5879C187.145 32.1664 186.902 31.6707 186.731 31.1011C186.562 30.5257 186.476 29.9019 186.476 29.2298ZM188.525 29.0503V29.2298C188.525 29.6513 188.565 30.0444 188.643 30.4089C188.729 30.7735 188.856 31.0954 189.026 31.3745C189.202 31.648 189.423 31.8644 189.689 32.0239C189.961 32.1778 190.281 32.2546 190.65 32.2546C191.131 32.2546 191.525 32.1521 191.831 31.947C192.142 31.742 192.381 31.4656 192.545 31.1181C192.715 30.765 192.833 30.3719 192.902 29.939V28.3924C192.868 28.0562 192.797 27.7429 192.689 27.4524C192.587 27.1619 192.449 26.9084 192.272 26.6919C192.097 26.4698 191.876 26.2989 191.61 26.1792C191.344 26.0539 191.029 25.9912 190.666 25.9912C190.298 25.9912 189.979 26.071 189.706 26.2305C189.434 26.39 189.21 26.6093 189.035 26.8884C188.865 27.1675 188.738 27.4923 188.652 27.8625C188.568 28.2329 188.525 28.6288 188.525 29.0503ZM198.901 20.625V33.75H196.845V20.625H198.901ZM205.2 33.9209C204.52 33.9209 203.904 33.8099 203.355 33.5876C202.811 33.3598 202.346 33.0436 201.961 32.6391C201.582 32.2347 201.29 31.759 201.086 31.2121C200.882 30.6652 200.78 30.0756 200.78 29.4434V29.1015C200.78 28.3781 200.884 27.723 201.094 27.1362C201.305 26.5495 201.596 26.0481 201.97 25.6324C202.344 25.2107 202.785 24.8889 203.296 24.6668C203.806 24.4446 204.358 24.3335 204.954 24.3335C205.61 24.3335 206.186 24.4446 206.678 24.6668C207.171 24.8889 207.579 25.2022 207.902 25.6067C208.231 26.0055 208.474 26.4811 208.632 27.0338C208.798 27.5863 208.88 28.1957 208.88 28.8622V29.7424H201.775V28.2641H206.857V28.1017C206.846 27.7315 206.771 27.384 206.636 27.0594C206.505 26.7346 206.304 26.4726 206.033 26.2733C205.76 26.0738 205.397 25.9741 204.945 25.9741C204.604 25.9741 204.301 26.0481 204.035 26.1963C203.775 26.3388 203.556 26.5466 203.381 26.8201C203.206 27.0935 203.069 27.4239 202.973 27.8113C202.882 28.193 202.836 28.623 202.836 29.1015V29.4434C202.836 29.8479 202.891 30.2238 202.998 30.5713C203.111 30.9131 203.276 31.2121 203.491 31.4685C203.707 31.7249 203.968 31.9271 204.273 32.0753C204.579 32.2176 204.927 32.2889 205.318 32.2889C205.811 32.2889 206.25 32.1891 206.636 31.9898C207.021 31.7904 207.355 31.5084 207.639 31.1438L208.718 32.1949C208.519 32.4854 208.262 32.7645 207.945 33.0323C207.628 33.2943 207.239 33.5079 206.78 33.6731C206.327 33.8382 205.8 33.9209 205.2 33.9209Z" fill="#E3E3E3"/>
<path d="M225.027 0.625H4.97293C2.56975 0.625 0.621582 2.58375 0.621582 5V50C0.621582 52.4162 2.56975 54.375 4.97293 54.375H225.027C227.43 54.375 229.378 52.4162 229.378 50V5C229.378 2.58375 227.43 0.625 225.027 0.625Z" stroke="#8E918F"/>
</g>
<defs>
<clipPath id="clip0_4008_434">
<rect width="230" height="55" rx="10" fill="white"/>
</clipPath>
</defs>
</svg>
