<svg width="43" height="44" viewBox="0 0 43 44" fill="none" xmlns="http://www.w3.org/2000/svg">
<g filter="url(#filter0_d_124_66)">
<rect x="2" y="2" width="39" height="39" rx="3.71429" fill="#EBEBEB"/>
</g>
<path fill-rule="evenodd" clip-rule="evenodd" d="M15.9255 19.4633C13.446 20.3791 11.9546 22.4586 11.9546 25.0002C11.9546 25.7972 11.953 25.8008 11.4839 26.1113C9.78244 27.2373 9.551 29.6803 11.0132 31.0793C11.582 31.6236 12.3764 31.9511 13.1348 31.9543C13.6837 31.9566 13.8245 31.9071 14.1257 31.6059L14.4767 31.2548V28.801C14.4767 26.3731 14.4736 26.3438 14.1867 26.0342C14.0272 25.8621 13.7504 25.6846 13.5715 25.6397C13.2492 25.5588 13.2468 25.5505 13.3012 24.7035C13.3793 23.4867 13.838 22.5212 14.7309 21.6945C15.6312 20.861 16.484 20.5282 17.7195 20.5282C18.955 20.5282 19.8078 20.861 20.7081 21.6945C21.601 22.5212 22.0598 23.4867 22.1378 24.7035C22.1922 25.5505 22.1898 25.5588 21.8675 25.6397C21.6886 25.6846 21.4118 25.8621 21.2523 26.0342C20.9654 26.3438 20.9623 26.3731 20.9623 28.801V31.2548L21.3133 31.6059C21.6139 31.9065 21.7564 31.9568 22.3042 31.9557C23.4782 31.9535 24.754 31.0919 25.1493 30.0344C25.2354 29.8037 25.3555 29.5211 25.416 29.4064C25.5599 29.1339 25.5597 27.9586 25.4158 28.0476C25.3551 28.0851 25.2705 27.9563 25.2277 27.7614C25.1168 27.2568 24.5283 26.4906 23.9658 26.1183L23.4844 25.7998V25.0002C23.4844 22.7241 22.2614 20.7785 20.1881 19.7567C19.2739 19.3062 19.1777 19.2851 17.9061 19.2542C16.8181 19.2279 16.4607 19.2656 15.9255 19.4633ZM10.0702 28.7742C10.0708 29.1705 10.0933 29.3181 10.12 29.1023C10.1467 28.8865 10.1462 28.5622 10.1188 28.3817C10.0913 28.2012 10.0695 28.3779 10.0702 28.7742Z" fill="#9F7159" fill-opacity="0.6"/>
<defs>
<filter id="filter0_d_124_66" x="0.142857" y="0.761905" width="42.7143" height="42.7143" filterUnits="userSpaceOnUse" color-interpolation-filters="sRGB">
<feFlood flood-opacity="0" result="BackgroundImageFix"/>
<feColorMatrix in="SourceAlpha" type="matrix" values="0 0 0 0 0 0 0 0 0 0 0 0 0 0 0 0 0 0 127 0" result="hardAlpha"/>
<feOffset dy="0.619048"/>
<feGaussianBlur stdDeviation="0.928571"/>
<feComposite in2="hardAlpha" operator="out"/>
<feColorMatrix type="matrix" values="0 0 0 0 0 0 0 0 0 0 0 0 0 0 0 0 0 0 0.25 0"/>
<feBlend mode="normal" in2="BackgroundImageFix" result="effect1_dropShadow_124_66"/>
<feBlend mode="normal" in="SourceGraphic" in2="effect1_dropShadow_124_66" result="shape"/>
</filter>
</defs>
</svg>
